<svg version="1.2" xmlns="http://www.w3.org/2000/svg" viewBox="0 0 161 165" width="161" height="165">
	<title>EmbedrNewLogo</title>
	<style>
		.s0 { fill: #ff85fe } 
		.s1 { fill: none;stroke: #ff85fe;stroke-width: 10 } 
	</style>
	<path id="zz copy 3" fill-rule="evenodd" class="s0" d="m113.8 120.5l15.2 16.4h-90.9v-11l30.9-40 10.7 15.7-14 18.9z"/>
	<path id="zz copy" class="s0" d="m70.9 83.3l-30.3-38.6-2.5-3.3v-11h87.6l-14 16.7h-45.6l26.6 35.6v1.3l-10.8 14.7-11.4-14.9z"/>
	<path id="Shape 3" class="s1" d="m6 20.5c0-6.9 5.6-12.5 12.5-12.5h126c6.9 0 12.5 5.6 12.5 12.5v126c0 6.9-5.6 12.5-12.5 12.5h-126c-6.9 0-12.5-5.6-12.5-12.5z"/>
</svg>